<?xml version="1.0" standalone="no"?><!DOCTYPE svg PUBLIC "-//W3C//DTD SVG 1.1//EN" "http://www.w3.org/Graphics/SVG/1.1/DTD/svg11.dtd"><svg t="1782963835907" class="icon" viewBox="0 0 1024 1024" version="1.1" xmlns="http://www.w3.org/2000/svg" p-id="1686" xmlns:xlink="http://www.w3.org/1999/xlink" width="256" height="256"><path d="M489.244444 352.711111l30.492445 27.921067-15.246222 16.520533h196.972089l0.637155 45.738667-122.606933 0.6144v59.096178l121.332622 1.911466v29.855289h-120.718222l-0.6144 106.723556c40.641422 1.274311 53.976178-15.883378 53.976178-15.883378l-13.971912-27.966578 73.045334-42.552889 38.752711 86.380089v-259.868444c-46.353067-119.466667-242.119111-28.603733-242.119111-28.603734l0.045511 0.091023zM511.453867 0C229.011911 0 0 229.034667 0 511.522133c0 282.464711 229.011911 511.476622 511.476622 511.476623 282.510222 0 511.522133-229.011911 511.522134-511.476623C1022.998756 229.034667 793.986844 0 511.476622 0zM256.068267 242.688a60.984889 60.984889 0 1 1 0 122.015289 60.984889 60.984889 0 0 1 0-122.015289z m62.2592 340.5824l-88.974223 183.000178-95.300266-60.984889 125.815466-137.261511c17.749333-22.892089 0-50.813156 0-50.813156L167.094044 437.134222l40.686934-55.933155s44.487111 34.315378 93.411555 82.602666c48.901689 48.287289 17.134933 119.466667 17.134934 119.466667z m524.856889 91.477333s-7.623111 108.043378-113.095112 105.494756c-105.426489-2.548622-105.494756 0-105.494755 0l-30.5152 0.022755s-17.749333-24.803556 0.659911-61.667555c0 0 38.729956-6.371556 45.078756 15.268978h44.487111s43.190044-8.260267 46.353066-76.231111l-60.984889 45.738666-22.232177-45.124266s-80.713956 64.785067-146.773334 60.370488h-89.611377s-58.459022-15.246222-61.622045-92.16v-59.733333h91.522845s-9.557333 94.071467 44.464355 89.611378l1.251556-120.740978h-137.238756v-30.5152h137.238756l-0.6144-60.370489-19.706311-0.637155-55.933156 55.296-36.864-33.041067 69.267911-68.608-1.911467-31.152356-87.062755 80.054045-52.724622-52.724622s69.859556-45.124267 92.7744-151.233423l78.119822 19.706312-12.674845 41.301333S799.903289 179.131733 843.093333 396.401778v278.300444l0.068267 0.045511z" fill="#ffffff" p-id="1687"></path></svg>